<svg xmlns="http://www.w3.org/2000/svg" viewBox="0 0 128 128">
    <rect width="128" height="128" rx="24" fill="#fff7ea"/>
    <g transform="translate(5 3)">
        <path d="M55 6c18 0 34 4 45 14 12 11 19 30 21 57 1 12 6 25 11 35 8 15 10 29 5 37-4 7-12 6-22-1-4-3-8-7-12-12 1 6 2 12 2 17 0 19-7 34-21 45-11 9-26 13-45 13-18 0-34-4-45-13-14-11-21-26-21-45 0-5 1-11 2-17-4 5-8 9-12 12-10 7-18 8-22 1-5-8-3-22 5-37 5-10 10-23 11-35 2-27 9-46 21-57C21 10 37 6 55 6Z" fill="#050505"/>
        <path d="M26 67c5-8 12-12 20-12 7 0 13 2 22 3 8 1 17 1 24 1 7 0 16 0 24-1 9-1 15-3 22-3 8 0 15 4 20 12 13 22 29 63 29 94 0 13-3 22-10 29-8 9-23 13-49 13-21 0-42-2-61-8-16-5-27-12-31-24-3-8-4-18-4-30 0-29 16-72 29-94Z" transform="translate(-21 -1) scale(.95 1.02)" fill="#fff"/>
        <ellipse cx="49" cy="54" rx="6.5" ry="7" fill="#fff"/>
        <ellipse cx="83" cy="54" rx="6.5" ry="7" fill="#fff"/>
        <circle cx="49" cy="54" r="4.7" fill="#050505"/>
        <circle cx="83" cy="54" r="4.7" fill="#050505"/>
        <ellipse cx="66" cy="58" rx="9" ry="4.8" fill="#ffe72f"/>
        <ellipse cx="66" cy="68" rx="9" ry="4.8" fill="#ffe72f"/>
        <path d="M31 14c4-10 10-14 15-14 4 0 7 2 9 7 1 4 2 9 1 14-4-2-7-5-10-8-5 3-10 5-15 7Z" fill="#050505"/>
        <path d="M27 101c-1 9-1 16 1 23 3 9 10 15 22 20 12 5 26 7 44 7 19 0 34-4 42-12 7-7 8-19 5-37-4-20-11-45-20-63-4-8-8-13-13-16-3-1-7-2-12-2-7 0-14 2-23 3-9 1-18 1-26 1-8 0-17 0-26-1-9-1-16-3-23-3-5 0-9 1-12 2-5 3-9 8-13 16-10 18-17 43-21 62Z" fill="#050505" opacity=".04"/>
    </g>
</svg>
