

<svg xmlns="http://www.w3.org/2000/svg" viewBox="0 0 200 240" class="peng-svg" aria-hidden="true">
  <defs>
    <radialGradient id="pBody" cx="50%" cy="35%" r="65%">
      <stop offset="0%" stop-color="#3D3530"></stop>
      <stop offset="100%" stop-color="#1F1A17"></stop>
    </radialGradient>
    <linearGradient id="pBelly" x1="0" y1="0" x2="0" y2="1">
      <stop offset="0%" stop-color="#FFFFFF"></stop>
      <stop offset="100%" stop-color="#FBEFDB"></stop>
    </linearGradient>
    <linearGradient id="pCap" x1="0" y1="0" x2="0" y2="1">
      <stop offset="0%" stop-color="#F39A2D"></stop>
      <stop offset="100%" stop-color="#E27D17"></stop>
    </linearGradient>
  </defs>
  
  <ellipse cx="100" cy="228" rx="46" ry="6" fill="#1F1A17" opacity="0.18"></ellipse>
  
  <ellipse cx="78" cy="220" rx="16" ry="8" fill="#F39A2D"></ellipse>
  <ellipse cx="122" cy="220" rx="16" ry="8" fill="#F39A2D"></ellipse>
  
  <path d="M100 26&#xA;           C 56 26, 32 64, 32 116&#xA;           C 32 174, 56 218, 100 218&#xA;           C 144 218, 168 174, 168 116&#xA;           C 168 64, 144 26, 100 26 Z" fill="url(#pBody)"></path>
  
  <ellipse cx="100" cy="138" rx="46" ry="64" fill="url(#pBelly)"></ellipse>
  
  <path d="M40 100 C 22 110, 18 160, 38 188 C 50 200, 60 198, 60 180 C 56 158, 56 124, 60 102 C 56 96, 48 96, 40 100 Z" fill="#1F1A17"></path>
  
  <path d="M160 100 C 178 110, 182 160, 162 188 C 150 200, 140 198, 140 180 C 144 158, 144 124, 140 102 C 144 96, 152 96, 160 100 Z" fill="#1F1A17"></path>
  
  <path d="M52 60 C 60 36, 80 22, 100 22 C 120 22, 140 36, 148 60 C 132 50, 116 46, 100 46 C 84 46, 68 50, 52 60 Z" fill="url(#pCap)"></path>
  <circle cx="100" cy="20" r="6" fill="#E27D17"></circle>
  
  <ellipse cx="84" cy="86" rx="7" ry="9" fill="#FFFFFF"></ellipse>
  <ellipse cx="116" cy="86" rx="7" ry="9" fill="#FFFFFF"></ellipse>
  <circle cx="85" cy="88" r="3.5" fill="#1F1A17"></circle>
  <circle cx="117" cy="88" r="3.5" fill="#1F1A17"></circle>
  <circle cx="86" cy="86.5" r="1.2" fill="#FFFFFF"></circle>
  <circle cx="118" cy="86.5" r="1.2" fill="#FFFFFF"></circle>
  
  <ellipse cx="76" cy="106" rx="6" ry="3.5" fill="#FFB1A6" opacity="0.7"></ellipse>
  <ellipse cx="124" cy="106" rx="6" ry="3.5" fill="#FFB1A6" opacity="0.7"></ellipse>
  
  <path d="M93 100 L107 100 L100 112 Z" fill="#F39A2D" stroke="#E27D17" stroke-width="1"></path>
</svg>